<mxfile host="app.diagrams.net" modified="2021-12-09T06:32:35.182Z" agent="5.0 (Windows NT 10.0; Win64; x64) AppleWebKit/537.36 (KHTML, like Gecko) Chrome/96.0.4664.45 Safari/537.36" etag="WPzzrjHTnEauUOOKk9h3" version="15.7.0" type="github">
  <diagram id="vTIlGKn34Agy7_nbuYvW" name="Page-1">
    <mxGraphModel dx="8490" dy="3745" grid="1" gridSize="10" guides="1" tooltips="1" connect="1" arrows="1" fold="1" page="1" pageScale="1" pageWidth="1100" pageHeight="850" math="0" shadow="0">
      <root>
        <mxCell id="0" />
        <mxCell id="1" parent="0" />
        <mxCell id="4XVsGeKiMnGcDN7NZz1f-46" style="edgeStyle=orthogonalEdgeStyle;rounded=0;orthogonalLoop=1;jettySize=auto;html=1;strokeWidth=4;" parent="1" source="4XVsGeKiMnGcDN7NZz1f-1" target="pWea8SycgsO2kqLgSIZi-3" edge="1">
          <mxGeometry relative="1" as="geometry">
            <mxPoint x="920" y="325" as="targetPoint" />
          </mxGeometry>
        </mxCell>
        <mxCell id="4XVsGeKiMnGcDN7NZz1f-50" style="edgeStyle=orthogonalEdgeStyle;rounded=0;orthogonalLoop=1;jettySize=auto;html=1;strokeWidth=4;" parent="1" source="pWea8SycgsO2kqLgSIZi-3" target="pWea8SycgsO2kqLgSIZi-4" edge="1">
          <mxGeometry relative="1" as="geometry">
            <mxPoint x="715" y="540" as="targetPoint" />
            <Array as="points">
              <mxPoint x="970" y="420" />
              <mxPoint x="970" y="420" />
            </Array>
          </mxGeometry>
        </mxCell>
        <mxCell id="4XVsGeKiMnGcDN7NZz1f-1" value="Sprint&amp;nbsp;" style="ellipse;whiteSpace=wrap;html=1;aspect=fixed;fillColor=#e1d5e7;strokeColor=#9673a6;fontStyle=1;fontSize=25;" parent="1" vertex="1">
          <mxGeometry x="610" y="205" width="240" height="240" as="geometry" />
        </mxCell>
        <mxCell id="4XVsGeKiMnGcDN7NZz1f-32" style="edgeStyle=orthogonalEdgeStyle;rounded=0;orthogonalLoop=1;jettySize=auto;html=1;strokeWidth=4;" parent="1" source="pWea8SycgsO2kqLgSIZi-2" target="4XVsGeKiMnGcDN7NZz1f-24" edge="1">
          <mxGeometry relative="1" as="geometry">
            <mxPoint x="260" y="325" as="sourcePoint" />
          </mxGeometry>
        </mxCell>
        <mxCell id="4XVsGeKiMnGcDN7NZz1f-17" style="edgeStyle=orthogonalEdgeStyle;rounded=0;orthogonalLoop=1;jettySize=auto;html=1;spacing=4;fontSize=15;strokeWidth=4;" parent="1" source="4XVsGeKiMnGcDN7NZz1f-8" target="pWea8SycgsO2kqLgSIZi-2" edge="1">
          <mxGeometry relative="1" as="geometry">
            <mxPoint x="140" y="325" as="targetPoint" />
          </mxGeometry>
        </mxCell>
        <mxCell id="4XVsGeKiMnGcDN7NZz1f-33" style="edgeStyle=orthogonalEdgeStyle;rounded=0;orthogonalLoop=1;jettySize=auto;html=1;strokeWidth=4;" parent="1" source="4XVsGeKiMnGcDN7NZz1f-24" target="4XVsGeKiMnGcDN7NZz1f-1" edge="1">
          <mxGeometry relative="1" as="geometry" />
        </mxCell>
        <mxCell id="4XVsGeKiMnGcDN7NZz1f-36" value="&lt;span style=&quot;color: rgb(51 , 51 , 51) ; font-family: &amp;#34;helvetica neue&amp;#34; , &amp;#34;helvetica&amp;#34; , &amp;#34;arial&amp;#34; , sans-serif ; font-size: 14px&quot;&gt;Team&lt;/span&gt;" style="ellipse;whiteSpace=wrap;html=1;aspect=fixed;fillColor=#ffe6cc;strokeColor=#d79b00;" parent="1" vertex="1">
          <mxGeometry x="-440" y="-360" width="80" height="80" as="geometry" />
        </mxCell>
        <mxCell id="4XVsGeKiMnGcDN7NZz1f-37" value="&lt;span style=&quot;color: rgb(51 , 51 , 51) ; font-family: &amp;#34;helvetica neue&amp;#34; , &amp;#34;helvetica&amp;#34; , &amp;#34;arial&amp;#34; , sans-serif ; font-size: 14px&quot;&gt;Events&lt;/span&gt;" style="ellipse;whiteSpace=wrap;html=1;aspect=fixed;fillColor=#e1d5e7;strokeColor=#9673a6;" parent="1" vertex="1">
          <mxGeometry x="-560" y="-160" width="80" height="80" as="geometry" />
        </mxCell>
        <mxCell id="4XVsGeKiMnGcDN7NZz1f-38" value="&lt;span style=&quot;color: rgb(51 , 51 , 51) ; font-family: &amp;#34;helvetica neue&amp;#34; , &amp;#34;helvetica&amp;#34; , &amp;#34;arial&amp;#34; , sans-serif ; font-size: 14px&quot;&gt;Artifacts&lt;/span&gt;" style="ellipse;whiteSpace=wrap;html=1;aspect=fixed;fillColor=#dae8fc;strokeColor=#6c8ebf;" parent="1" vertex="1">
          <mxGeometry x="-320" y="-160" width="80" height="80" as="geometry" />
        </mxCell>
        <mxCell id="4XVsGeKiMnGcDN7NZz1f-39" value="Inspection" style="endArrow=none;html=1;strokeWidth=7;fontStyle=1" parent="1" source="4XVsGeKiMnGcDN7NZz1f-38" target="4XVsGeKiMnGcDN7NZz1f-36" edge="1">
          <mxGeometry x="0.0448" y="-14" width="50" height="50" relative="1" as="geometry">
            <mxPoint x="-10" y="-60" as="sourcePoint" />
            <mxPoint x="40" y="-110" as="targetPoint" />
            <mxPoint as="offset" />
          </mxGeometry>
        </mxCell>
        <mxCell id="4XVsGeKiMnGcDN7NZz1f-40" value="" style="endArrow=none;html=1;strokeWidth=7;" parent="1" source="4XVsGeKiMnGcDN7NZz1f-37" target="4XVsGeKiMnGcDN7NZz1f-36" edge="1">
          <mxGeometry width="50" height="50" relative="1" as="geometry">
            <mxPoint x="-90" as="sourcePoint" />
            <mxPoint x="-446.9501543074218" y="-220.441766243473" as="targetPoint" />
          </mxGeometry>
        </mxCell>
        <mxCell id="qiKfdvFr4R7piAgloskP-28" value="Adaptation" style="edgeLabel;html=1;align=center;verticalAlign=middle;resizable=0;points=[];fontStyle=1" parent="4XVsGeKiMnGcDN7NZz1f-40" vertex="1" connectable="0">
          <mxGeometry x="0.1629" y="1" relative="1" as="geometry">
            <mxPoint x="-10.72" y="1.48" as="offset" />
          </mxGeometry>
        </mxCell>
        <mxCell id="4XVsGeKiMnGcDN7NZz1f-41" value="Transparency" style="endArrow=none;html=1;strokeWidth=6;fontStyle=1" parent="1" source="4XVsGeKiMnGcDN7NZz1f-38" target="4XVsGeKiMnGcDN7NZz1f-37" edge="1">
          <mxGeometry width="50" height="50" relative="1" as="geometry">
            <mxPoint x="-10" y="-60" as="sourcePoint" />
            <mxPoint x="40" y="-110" as="targetPoint" />
          </mxGeometry>
        </mxCell>
        <mxCell id="4XVsGeKiMnGcDN7NZz1f-43" value="Scrum" style="text;html=1;align=center;verticalAlign=middle;resizable=0;points=[];autosize=1;fontStyle=1;spacing=3;fontSize=21;" parent="1" vertex="1">
          <mxGeometry x="-450" y="-210" width="90" height="40" as="geometry" />
        </mxCell>
        <mxCell id="4XVsGeKiMnGcDN7NZz1f-49" style="edgeStyle=orthogonalEdgeStyle;rounded=0;orthogonalLoop=1;jettySize=auto;html=1;dashed=1;" parent="1" source="4XVsGeKiMnGcDN7NZz1f-44" target="pWea8SycgsO2kqLgSIZi-4" edge="1">
          <mxGeometry relative="1" as="geometry">
            <Array as="points">
              <mxPoint x="1205" y="570" />
            </Array>
            <mxPoint x="775" y="570" as="targetPoint" />
          </mxGeometry>
        </mxCell>
        <mxCell id="4XVsGeKiMnGcDN7NZz1f-44" value="" style="html=1;whiteSpace=wrap;shape=isoCube2;backgroundOutline=1;isoAngle=15;fillColor=#dae8fc;strokeColor=#6c8ebf;" parent="1" vertex="1">
          <mxGeometry x="1135" y="247.5" width="140" height="155" as="geometry" />
        </mxCell>
        <mxCell id="4XVsGeKiMnGcDN7NZz1f-47" style="edgeStyle=orthogonalEdgeStyle;rounded=0;orthogonalLoop=1;jettySize=auto;html=1;dashed=1;" parent="1" source="pWea8SycgsO2kqLgSIZi-3" target="4XVsGeKiMnGcDN7NZz1f-44" edge="1">
          <mxGeometry relative="1" as="geometry">
            <mxPoint x="1040" y="325" as="sourcePoint" />
          </mxGeometry>
        </mxCell>
        <mxCell id="4XVsGeKiMnGcDN7NZz1f-51" style="edgeStyle=orthogonalEdgeStyle;rounded=0;orthogonalLoop=1;jettySize=auto;html=1;dashed=1;" parent="1" source="pWea8SycgsO2kqLgSIZi-4" target="4XVsGeKiMnGcDN7NZz1f-3" edge="1">
          <mxGeometry relative="1" as="geometry">
            <mxPoint x="655" y="570" as="sourcePoint" />
          </mxGeometry>
        </mxCell>
        <mxCell id="4XVsGeKiMnGcDN7NZz1f-19" value="Sprint backlog" style="shape=table;html=1;whiteSpace=wrap;startSize=30;container=1;collapsible=0;childLayout=tableLayout;fontStyle=1;align=center;fillColor=#dae8fc;strokeColor=#6c8ebf;" parent="1" vertex="1">
          <mxGeometry x="330" y="235" width="180" height="150" as="geometry" />
        </mxCell>
        <mxCell id="4XVsGeKiMnGcDN7NZz1f-20" value="" style="shape=partialRectangle;html=1;whiteSpace=wrap;collapsible=0;dropTarget=0;pointerEvents=0;fillColor=none;top=0;left=0;bottom=0;right=0;points=[[0,0.5],[1,0.5]];portConstraint=eastwest;" parent="4XVsGeKiMnGcDN7NZz1f-19" vertex="1">
          <mxGeometry y="30" width="180" height="40" as="geometry" />
        </mxCell>
        <mxCell id="4XVsGeKiMnGcDN7NZz1f-21" value="Task" style="shape=partialRectangle;html=1;whiteSpace=wrap;connectable=0;fillColor=none;top=0;left=0;bottom=0;right=0;overflow=hidden;" parent="4XVsGeKiMnGcDN7NZz1f-20" vertex="1">
          <mxGeometry width="60" height="40" as="geometry" />
        </mxCell>
        <mxCell id="4XVsGeKiMnGcDN7NZz1f-22" value="Subtask" style="shape=partialRectangle;html=1;whiteSpace=wrap;connectable=0;fillColor=none;top=0;left=0;bottom=0;right=0;overflow=hidden;" parent="4XVsGeKiMnGcDN7NZz1f-20" vertex="1">
          <mxGeometry x="60" width="60" height="40" as="geometry" />
        </mxCell>
        <mxCell id="4XVsGeKiMnGcDN7NZz1f-23" value="DoD" style="shape=partialRectangle;html=1;whiteSpace=wrap;connectable=0;fillColor=none;top=0;left=0;bottom=0;right=0;overflow=hidden;" parent="4XVsGeKiMnGcDN7NZz1f-20" vertex="1">
          <mxGeometry x="120" width="60" height="40" as="geometry" />
        </mxCell>
        <mxCell id="4XVsGeKiMnGcDN7NZz1f-24" value="" style="shape=partialRectangle;html=1;whiteSpace=wrap;collapsible=0;dropTarget=0;pointerEvents=0;fillColor=none;top=0;left=0;bottom=0;right=0;points=[[0,0.5],[1,0.5]];portConstraint=eastwest;" parent="4XVsGeKiMnGcDN7NZz1f-19" vertex="1">
          <mxGeometry y="70" width="180" height="40" as="geometry" />
        </mxCell>
        <mxCell id="4XVsGeKiMnGcDN7NZz1f-25" value="In Progress" style="shape=partialRectangle;html=1;whiteSpace=wrap;connectable=0;fillColor=none;top=0;left=0;bottom=0;right=0;overflow=hidden;" parent="4XVsGeKiMnGcDN7NZz1f-24" vertex="1">
          <mxGeometry width="60" height="40" as="geometry" />
        </mxCell>
        <mxCell id="4XVsGeKiMnGcDN7NZz1f-26" value="Doing" style="shape=partialRectangle;html=1;whiteSpace=wrap;connectable=0;fillColor=none;top=0;left=0;bottom=0;right=0;overflow=hidden;" parent="4XVsGeKiMnGcDN7NZz1f-24" vertex="1">
          <mxGeometry x="60" width="60" height="40" as="geometry" />
        </mxCell>
        <mxCell id="4XVsGeKiMnGcDN7NZz1f-27" value="Done" style="shape=partialRectangle;html=1;whiteSpace=wrap;connectable=0;fillColor=none;top=0;left=0;bottom=0;right=0;overflow=hidden;" parent="4XVsGeKiMnGcDN7NZz1f-24" vertex="1">
          <mxGeometry x="120" width="60" height="40" as="geometry" />
        </mxCell>
        <mxCell id="4XVsGeKiMnGcDN7NZz1f-28" value="" style="shape=partialRectangle;html=1;whiteSpace=wrap;collapsible=0;dropTarget=0;pointerEvents=0;fillColor=none;top=0;left=0;bottom=0;right=0;points=[[0,0.5],[1,0.5]];portConstraint=eastwest;" parent="4XVsGeKiMnGcDN7NZz1f-19" vertex="1">
          <mxGeometry y="110" width="180" height="40" as="geometry" />
        </mxCell>
        <mxCell id="4XVsGeKiMnGcDN7NZz1f-29" value="Policy Explicit" style="shape=partialRectangle;html=1;whiteSpace=wrap;connectable=0;fillColor=none;top=0;left=0;bottom=0;right=0;overflow=hidden;" parent="4XVsGeKiMnGcDN7NZz1f-28" vertex="1">
          <mxGeometry width="60" height="40" as="geometry" />
        </mxCell>
        <mxCell id="4XVsGeKiMnGcDN7NZz1f-30" value="WIP" style="shape=partialRectangle;html=1;whiteSpace=wrap;connectable=0;fillColor=none;top=0;left=0;bottom=0;right=0;overflow=hidden;" parent="4XVsGeKiMnGcDN7NZz1f-28" vertex="1">
          <mxGeometry x="60" width="60" height="40" as="geometry" />
        </mxCell>
        <mxCell id="4XVsGeKiMnGcDN7NZz1f-31" value="" style="shape=partialRectangle;html=1;whiteSpace=wrap;connectable=0;fillColor=none;top=0;left=0;bottom=0;right=0;overflow=hidden;" parent="4XVsGeKiMnGcDN7NZz1f-28" vertex="1">
          <mxGeometry x="120" width="60" height="40" as="geometry" />
        </mxCell>
        <mxCell id="4XVsGeKiMnGcDN7NZz1f-3" value="Product backlog" style="shape=table;html=1;whiteSpace=wrap;startSize=30;container=1;collapsible=0;childLayout=tableLayout;fontStyle=1;align=center;fillColor=#dae8fc;strokeColor=#6c8ebf;" parent="1" vertex="1">
          <mxGeometry x="-110" y="235" width="180" height="150" as="geometry" />
        </mxCell>
        <mxCell id="4XVsGeKiMnGcDN7NZz1f-4" value="" style="shape=partialRectangle;html=1;whiteSpace=wrap;collapsible=0;dropTarget=0;pointerEvents=0;fillColor=none;top=0;left=0;bottom=0;right=0;points=[[0,0.5],[1,0.5]];portConstraint=eastwest;" parent="4XVsGeKiMnGcDN7NZz1f-3" vertex="1">
          <mxGeometry y="30" width="180" height="40" as="geometry" />
        </mxCell>
        <mxCell id="4XVsGeKiMnGcDN7NZz1f-5" value="Issued" style="shape=partialRectangle;html=1;whiteSpace=wrap;connectable=0;fillColor=none;top=0;left=0;bottom=0;right=0;overflow=hidden;" parent="4XVsGeKiMnGcDN7NZz1f-4" vertex="1">
          <mxGeometry width="60" height="40" as="geometry" />
        </mxCell>
        <mxCell id="4XVsGeKiMnGcDN7NZz1f-6" value="Story" style="shape=partialRectangle;html=1;whiteSpace=wrap;connectable=0;fillColor=none;top=0;left=0;bottom=0;right=0;overflow=hidden;" parent="4XVsGeKiMnGcDN7NZz1f-4" vertex="1">
          <mxGeometry x="60" width="60" height="40" as="geometry" />
        </mxCell>
        <mxCell id="4XVsGeKiMnGcDN7NZz1f-7" value="Feature" style="shape=partialRectangle;html=1;whiteSpace=wrap;connectable=0;fillColor=none;top=0;left=0;bottom=0;right=0;overflow=hidden;" parent="4XVsGeKiMnGcDN7NZz1f-4" vertex="1">
          <mxGeometry x="120" width="60" height="40" as="geometry" />
        </mxCell>
        <mxCell id="4XVsGeKiMnGcDN7NZz1f-8" value="" style="shape=partialRectangle;html=1;whiteSpace=wrap;collapsible=0;dropTarget=0;pointerEvents=0;fillColor=none;top=0;left=0;bottom=0;right=0;points=[[0,0.5],[1,0.5]];portConstraint=eastwest;" parent="4XVsGeKiMnGcDN7NZz1f-3" vertex="1">
          <mxGeometry y="70" width="180" height="40" as="geometry" />
        </mxCell>
        <mxCell id="4XVsGeKiMnGcDN7NZz1f-9" value="Bug" style="shape=partialRectangle;html=1;whiteSpace=wrap;connectable=0;fillColor=none;top=0;left=0;bottom=0;right=0;overflow=hidden;" parent="4XVsGeKiMnGcDN7NZz1f-8" vertex="1">
          <mxGeometry width="60" height="40" as="geometry" />
        </mxCell>
        <mxCell id="4XVsGeKiMnGcDN7NZz1f-10" value="Retro" style="shape=partialRectangle;html=1;whiteSpace=wrap;connectable=0;fillColor=none;top=0;left=0;bottom=0;right=0;overflow=hidden;" parent="4XVsGeKiMnGcDN7NZz1f-8" vertex="1">
          <mxGeometry x="60" width="60" height="40" as="geometry" />
        </mxCell>
        <mxCell id="4XVsGeKiMnGcDN7NZz1f-11" value="" style="shape=partialRectangle;html=1;whiteSpace=wrap;connectable=0;fillColor=none;top=0;left=0;bottom=0;right=0;overflow=hidden;" parent="4XVsGeKiMnGcDN7NZz1f-8" vertex="1">
          <mxGeometry x="120" width="60" height="40" as="geometry" />
        </mxCell>
        <mxCell id="4XVsGeKiMnGcDN7NZz1f-12" value="" style="shape=partialRectangle;html=1;whiteSpace=wrap;collapsible=0;dropTarget=0;pointerEvents=0;fillColor=none;top=0;left=0;bottom=0;right=0;points=[[0,0.5],[1,0.5]];portConstraint=eastwest;" parent="4XVsGeKiMnGcDN7NZz1f-3" vertex="1">
          <mxGeometry y="110" width="180" height="40" as="geometry" />
        </mxCell>
        <mxCell id="4XVsGeKiMnGcDN7NZz1f-13" value="" style="shape=partialRectangle;html=1;whiteSpace=wrap;connectable=0;fillColor=none;top=0;left=0;bottom=0;right=0;overflow=hidden;" parent="4XVsGeKiMnGcDN7NZz1f-12" vertex="1">
          <mxGeometry width="60" height="40" as="geometry" />
        </mxCell>
        <mxCell id="4XVsGeKiMnGcDN7NZz1f-14" value="" style="shape=partialRectangle;html=1;whiteSpace=wrap;connectable=0;fillColor=none;top=0;left=0;bottom=0;right=0;overflow=hidden;" parent="4XVsGeKiMnGcDN7NZz1f-12" vertex="1">
          <mxGeometry x="60" width="60" height="40" as="geometry" />
        </mxCell>
        <mxCell id="4XVsGeKiMnGcDN7NZz1f-15" value="" style="shape=partialRectangle;html=1;whiteSpace=wrap;connectable=0;fillColor=none;top=0;left=0;bottom=0;right=0;overflow=hidden;" parent="4XVsGeKiMnGcDN7NZz1f-12" vertex="1">
          <mxGeometry x="120" width="60" height="40" as="geometry" />
        </mxCell>
        <mxCell id="4XVsGeKiMnGcDN7NZz1f-52" value="Increment" style="text;html=1;align=center;verticalAlign=middle;resizable=0;points=[];autosize=1;" parent="1" vertex="1">
          <mxGeometry x="1170" y="270" width="70" height="20" as="geometry" />
        </mxCell>
        <mxCell id="4XVsGeKiMnGcDN7NZz1f-55" value="what?" style="ellipse;whiteSpace=wrap;html=1;" parent="1" vertex="1">
          <mxGeometry y="820" width="120" height="80" as="geometry" />
        </mxCell>
        <mxCell id="4XVsGeKiMnGcDN7NZz1f-56" value="how?" style="ellipse;whiteSpace=wrap;html=1;" parent="1" vertex="1">
          <mxGeometry x="140" y="820" width="120" height="80" as="geometry" />
        </mxCell>
        <mxCell id="4XVsGeKiMnGcDN7NZz1f-57" value="Sprint goal" style="ellipse;whiteSpace=wrap;html=1;" parent="1" vertex="1">
          <mxGeometry x="280" y="820" width="120" height="80" as="geometry" />
        </mxCell>
        <mxCell id="4XVsGeKiMnGcDN7NZz1f-58" value="" style="endArrow=none;html=1;" parent="1" source="4XVsGeKiMnGcDN7NZz1f-55" target="pWea8SycgsO2kqLgSIZi-8" edge="1">
          <mxGeometry width="50" height="50" relative="1" as="geometry">
            <mxPoint x="70" y="790" as="sourcePoint" />
            <mxPoint x="165" y="770" as="targetPoint" />
          </mxGeometry>
        </mxCell>
        <mxCell id="4XVsGeKiMnGcDN7NZz1f-59" value="" style="endArrow=none;html=1;" parent="1" source="4XVsGeKiMnGcDN7NZz1f-56" target="pWea8SycgsO2kqLgSIZi-8" edge="1">
          <mxGeometry width="50" height="50" relative="1" as="geometry">
            <mxPoint x="350" y="760" as="sourcePoint" />
            <mxPoint x="200" y="770" as="targetPoint" />
          </mxGeometry>
        </mxCell>
        <mxCell id="4XVsGeKiMnGcDN7NZz1f-60" value="" style="endArrow=none;html=1;" parent="1" source="4XVsGeKiMnGcDN7NZz1f-57" target="pWea8SycgsO2kqLgSIZi-8" edge="1">
          <mxGeometry width="50" height="50" relative="1" as="geometry">
            <mxPoint x="370" y="780" as="sourcePoint" />
            <mxPoint x="235" y="770" as="targetPoint" />
          </mxGeometry>
        </mxCell>
        <mxCell id="4XVsGeKiMnGcDN7NZz1f-61" value="" style="html=1;whiteSpace=wrap;shape=isoCube2;backgroundOutline=1;isoAngle=15;" parent="1" vertex="1">
          <mxGeometry x="1390" y="247.5" width="140" height="155" as="geometry" />
        </mxCell>
        <mxCell id="4XVsGeKiMnGcDN7NZz1f-62" value="Increment" style="text;html=1;align=center;verticalAlign=middle;resizable=0;points=[];autosize=1;" parent="1" vertex="1">
          <mxGeometry x="1425" y="267.5" width="70" height="20" as="geometry" />
        </mxCell>
        <mxCell id="4XVsGeKiMnGcDN7NZz1f-63" value="Definition of &quot;Done&quot;&amp;nbsp;" style="ellipse;whiteSpace=wrap;html=1;" parent="1" vertex="1">
          <mxGeometry x="1640" y="285" width="140" height="80" as="geometry" />
        </mxCell>
        <mxCell id="4XVsGeKiMnGcDN7NZz1f-66" value="" style="endArrow=none;html=1;" parent="1" source="4XVsGeKiMnGcDN7NZz1f-63" target="4XVsGeKiMnGcDN7NZz1f-61" edge="1">
          <mxGeometry width="50" height="50" relative="1" as="geometry">
            <mxPoint x="1570" y="427.5" as="sourcePoint" />
            <mxPoint x="1620" y="377.5" as="targetPoint" />
          </mxGeometry>
        </mxCell>
        <mxCell id="4XVsGeKiMnGcDN7NZz1f-68" value="what did?" style="ellipse;whiteSpace=wrap;html=1;" parent="1" vertex="1">
          <mxGeometry x="435" y="-45" width="120" height="80" as="geometry" />
        </mxCell>
        <mxCell id="4XVsGeKiMnGcDN7NZz1f-69" value="what will?" style="ellipse;whiteSpace=wrap;html=1;" parent="1" vertex="1">
          <mxGeometry x="585" y="-55" width="120" height="80" as="geometry" />
        </mxCell>
        <mxCell id="4XVsGeKiMnGcDN7NZz1f-70" value="prevents Sprint goal?" style="ellipse;whiteSpace=wrap;html=1;" parent="1" vertex="1">
          <mxGeometry x="735" y="-45" width="130" height="80" as="geometry" />
        </mxCell>
        <mxCell id="4XVsGeKiMnGcDN7NZz1f-71" value="" style="endArrow=none;html=1;" parent="1" source="4XVsGeKiMnGcDN7NZz1f-68" target="pWea8SycgsO2kqLgSIZi-5" edge="1">
          <mxGeometry width="50" height="50" relative="1" as="geometry">
            <mxPoint x="415" y="155" as="sourcePoint" />
            <mxPoint x="600" y="65" as="targetPoint" />
          </mxGeometry>
        </mxCell>
        <mxCell id="4XVsGeKiMnGcDN7NZz1f-72" value="" style="endArrow=none;html=1;" parent="1" source="4XVsGeKiMnGcDN7NZz1f-69" target="pWea8SycgsO2kqLgSIZi-5" edge="1">
          <mxGeometry width="50" height="50" relative="1" as="geometry">
            <mxPoint x="785" y="105" as="sourcePoint" />
            <mxPoint x="645" y="65" as="targetPoint" />
          </mxGeometry>
        </mxCell>
        <mxCell id="4XVsGeKiMnGcDN7NZz1f-73" value="" style="endArrow=none;html=1;" parent="1" source="4XVsGeKiMnGcDN7NZz1f-70" target="pWea8SycgsO2kqLgSIZi-5" edge="1">
          <mxGeometry width="50" height="50" relative="1" as="geometry">
            <mxPoint x="755" y="105" as="sourcePoint" />
            <mxPoint x="691.5000000000005" y="65" as="targetPoint" />
          </mxGeometry>
        </mxCell>
        <mxCell id="4XVsGeKiMnGcDN7NZz1f-75" value="inspect" style="ellipse;whiteSpace=wrap;html=1;" parent="1" vertex="1">
          <mxGeometry x="770" y="830" width="120" height="80" as="geometry" />
        </mxCell>
        <mxCell id="4XVsGeKiMnGcDN7NZz1f-76" value="identify and order" style="ellipse;whiteSpace=wrap;html=1;" parent="1" vertex="1">
          <mxGeometry x="910" y="830" width="120" height="80" as="geometry" />
        </mxCell>
        <mxCell id="4XVsGeKiMnGcDN7NZz1f-77" value="create" style="ellipse;whiteSpace=wrap;html=1;" parent="1" vertex="1">
          <mxGeometry x="1050" y="830" width="120" height="80" as="geometry" />
        </mxCell>
        <mxCell id="4XVsGeKiMnGcDN7NZz1f-78" value="" style="endArrow=none;html=1;" parent="1" source="4XVsGeKiMnGcDN7NZz1f-75" target="pWea8SycgsO2kqLgSIZi-7" edge="1">
          <mxGeometry width="50" height="50" relative="1" as="geometry">
            <mxPoint x="830" y="780" as="sourcePoint" />
            <mxPoint x="937.6923076923076" y="770" as="targetPoint" />
          </mxGeometry>
        </mxCell>
        <mxCell id="4XVsGeKiMnGcDN7NZz1f-79" value="" style="endArrow=none;html=1;" parent="1" source="4XVsGeKiMnGcDN7NZz1f-76" target="pWea8SycgsO2kqLgSIZi-7" edge="1">
          <mxGeometry width="50" height="50" relative="1" as="geometry">
            <mxPoint x="1120" y="820" as="sourcePoint" />
            <mxPoint x="970" y="770" as="targetPoint" />
          </mxGeometry>
        </mxCell>
        <mxCell id="4XVsGeKiMnGcDN7NZz1f-80" value="" style="endArrow=none;html=1;" parent="1" source="4XVsGeKiMnGcDN7NZz1f-77" target="pWea8SycgsO2kqLgSIZi-7" edge="1">
          <mxGeometry width="50" height="50" relative="1" as="geometry">
            <mxPoint x="1110" y="780" as="sourcePoint" />
            <mxPoint x="1002.3076923076924" y="770" as="targetPoint" />
          </mxGeometry>
        </mxCell>
        <mxCell id="pWea8SycgsO2kqLgSIZi-1" value="&lt;span&gt;Daily scrum&lt;/span&gt;" style="ellipse;whiteSpace=wrap;html=1;aspect=fixed;fillColor=#e1d5e7;strokeColor=#9673a6;fontStyle=1" parent="1" vertex="1">
          <mxGeometry x="600" y="210" width="90" height="90" as="geometry" />
        </mxCell>
        <mxCell id="pWea8SycgsO2kqLgSIZi-2" value="&lt;span&gt;Sprint planning&lt;/span&gt;" style="ellipse;whiteSpace=wrap;html=1;aspect=fixed;fillColor=#e1d5e7;strokeColor=#9673a6;fontStyle=1" parent="1" vertex="1">
          <mxGeometry x="150" y="270" width="110" height="110" as="geometry" />
        </mxCell>
        <mxCell id="pWea8SycgsO2kqLgSIZi-3" value="Sprint review" style="ellipse;whiteSpace=wrap;html=1;aspect=fixed;fillColor=#e1d5e7;strokeColor=#9673a6;fontStyle=1" parent="1" vertex="1">
          <mxGeometry x="920" y="275" width="100" height="100" as="geometry" />
        </mxCell>
        <mxCell id="pWea8SycgsO2kqLgSIZi-4" value="Sprint retrospective" style="ellipse;whiteSpace=wrap;html=1;aspect=fixed;fillColor=#e1d5e7;strokeColor=#9673a6;fontStyle=1" parent="1" vertex="1">
          <mxGeometry x="920" y="520" width="100" height="100" as="geometry" />
        </mxCell>
        <mxCell id="pWea8SycgsO2kqLgSIZi-5" value="&lt;span&gt;Daily scrum&lt;/span&gt;" style="ellipse;whiteSpace=wrap;html=1;aspect=fixed;" parent="1" vertex="1">
          <mxGeometry x="600" y="65" width="90" height="90" as="geometry" />
        </mxCell>
        <mxCell id="pWea8SycgsO2kqLgSIZi-7" value="Sprint retrospective" style="ellipse;whiteSpace=wrap;html=1;aspect=fixed;" parent="1" vertex="1">
          <mxGeometry x="920" y="680" width="100" height="100" as="geometry" />
        </mxCell>
        <mxCell id="pWea8SycgsO2kqLgSIZi-8" value="&lt;span&gt;Sprint planning&lt;/span&gt;" style="ellipse;whiteSpace=wrap;html=1;aspect=fixed;" parent="1" vertex="1">
          <mxGeometry x="150" y="680" width="100" height="100" as="geometry" />
        </mxCell>
        <mxCell id="pWea8SycgsO2kqLgSIZi-11" value="" style="endArrow=none;dashed=1;html=1;dashPattern=1 3;strokeWidth=2;" parent="1" source="pWea8SycgsO2kqLgSIZi-1" target="pWea8SycgsO2kqLgSIZi-5" edge="1">
          <mxGeometry width="50" height="50" relative="1" as="geometry">
            <mxPoint x="870" y="130" as="sourcePoint" />
            <mxPoint x="920" y="80" as="targetPoint" />
          </mxGeometry>
        </mxCell>
        <mxCell id="pWea8SycgsO2kqLgSIZi-12" value="" style="endArrow=none;dashed=1;html=1;dashPattern=1 3;strokeWidth=2;entryX=0.5;entryY=1;entryDx=0;entryDy=0;" parent="1" source="pWea8SycgsO2kqLgSIZi-8" target="pWea8SycgsO2kqLgSIZi-2" edge="1">
          <mxGeometry width="50" height="50" relative="1" as="geometry">
            <mxPoint x="330" y="670" as="sourcePoint" />
            <mxPoint x="380" y="620" as="targetPoint" />
          </mxGeometry>
        </mxCell>
        <mxCell id="pWea8SycgsO2kqLgSIZi-13" value="" style="endArrow=none;dashed=1;html=1;dashPattern=1 3;strokeWidth=2;" parent="1" source="pWea8SycgsO2kqLgSIZi-7" target="pWea8SycgsO2kqLgSIZi-4" edge="1">
          <mxGeometry width="50" height="50" relative="1" as="geometry">
            <mxPoint x="900" y="690" as="sourcePoint" />
            <mxPoint x="950" y="640" as="targetPoint" />
          </mxGeometry>
        </mxCell>
        <mxCell id="pWea8SycgsO2kqLgSIZi-14" value="" style="endArrow=none;dashed=1;html=1;dashPattern=1 3;strokeWidth=2;exitX=1;exitY=0.5;exitDx=0;exitDy=0;exitPerimeter=0;" parent="1" source="4XVsGeKiMnGcDN7NZz1f-44" target="4XVsGeKiMnGcDN7NZz1f-61" edge="1">
          <mxGeometry width="50" height="50" relative="1" as="geometry">
            <mxPoint x="1370" y="80" as="sourcePoint" />
            <mxPoint x="1420" y="30" as="targetPoint" />
          </mxGeometry>
        </mxCell>
        <mxCell id="qiKfdvFr4R7piAgloskP-3" value="Product Owner" style="ellipse;whiteSpace=wrap;html=1;fillColor=#ffe6cc;strokeColor=#d79b00;" parent="1" vertex="1">
          <mxGeometry x="-590" y="-500" width="120" height="80" as="geometry" />
        </mxCell>
        <mxCell id="qiKfdvFr4R7piAgloskP-4" value="Developers" style="ellipse;whiteSpace=wrap;html=1;fillColor=#ffe6cc;strokeColor=#d79b00;" parent="1" vertex="1">
          <mxGeometry x="-460" y="-520" width="120" height="80" as="geometry" />
        </mxCell>
        <mxCell id="qiKfdvFr4R7piAgloskP-5" value="Scrum Master" style="ellipse;whiteSpace=wrap;html=1;fillColor=#ffe6cc;strokeColor=#d79b00;" parent="1" vertex="1">
          <mxGeometry x="-330" y="-500" width="120" height="80" as="geometry" />
        </mxCell>
        <mxCell id="qiKfdvFr4R7piAgloskP-9" value="" style="endArrow=classic;html=1;dashed=1;" parent="1" source="4XVsGeKiMnGcDN7NZz1f-36" target="qiKfdvFr4R7piAgloskP-3" edge="1">
          <mxGeometry width="50" height="50" relative="1" as="geometry">
            <mxPoint x="-575" y="-420" as="sourcePoint" />
            <mxPoint x="-525" y="-470" as="targetPoint" />
          </mxGeometry>
        </mxCell>
        <mxCell id="qiKfdvFr4R7piAgloskP-10" value="" style="endArrow=classic;html=1;dashed=1;" parent="1" source="4XVsGeKiMnGcDN7NZz1f-36" target="qiKfdvFr4R7piAgloskP-4" edge="1">
          <mxGeometry width="50" height="50" relative="1" as="geometry">
            <mxPoint x="-325" y="-370" as="sourcePoint" />
            <mxPoint x="-429.6668625919301" y="-480.15832642206624" as="targetPoint" />
          </mxGeometry>
        </mxCell>
        <mxCell id="qiKfdvFr4R7piAgloskP-11" value="" style="endArrow=classic;html=1;dashed=1;" parent="1" source="4XVsGeKiMnGcDN7NZz1f-36" target="qiKfdvFr4R7piAgloskP-5" edge="1">
          <mxGeometry width="50" height="50" relative="1" as="geometry">
            <mxPoint x="-345" y="-330" as="sourcePoint" />
            <mxPoint x="-295" y="-380" as="targetPoint" />
          </mxGeometry>
        </mxCell>
        <mxCell id="qiKfdvFr4R7piAgloskP-12" value="The Sprint" style="ellipse;whiteSpace=wrap;html=1;fillColor=#e1d5e7;strokeColor=#9673a6;" parent="1" vertex="1">
          <mxGeometry x="-730" y="-320" width="120" height="80" as="geometry" />
        </mxCell>
        <mxCell id="qiKfdvFr4R7piAgloskP-13" value="Sprint Planning" style="ellipse;whiteSpace=wrap;html=1;fillColor=#e1d5e7;strokeColor=#9673a6;" parent="1" vertex="1">
          <mxGeometry x="-790" y="-200" width="120" height="80" as="geometry" />
        </mxCell>
        <mxCell id="qiKfdvFr4R7piAgloskP-14" value="Daily Scrum" style="ellipse;whiteSpace=wrap;html=1;fillColor=#e1d5e7;strokeColor=#9673a6;" parent="1" vertex="1">
          <mxGeometry x="-780" y="-80" width="120" height="80" as="geometry" />
        </mxCell>
        <mxCell id="qiKfdvFr4R7piAgloskP-15" value="Sprint Review" style="ellipse;whiteSpace=wrap;html=1;fillColor=#e1d5e7;strokeColor=#9673a6;" parent="1" vertex="1">
          <mxGeometry x="-695" y="25" width="120" height="80" as="geometry" />
        </mxCell>
        <mxCell id="qiKfdvFr4R7piAgloskP-16" value="Sprint Retrospective" style="ellipse;whiteSpace=wrap;html=1;fillColor=#e1d5e7;strokeColor=#9673a6;" parent="1" vertex="1">
          <mxGeometry x="-540" y="35" width="120" height="80" as="geometry" />
        </mxCell>
        <mxCell id="qiKfdvFr4R7piAgloskP-17" value="" style="endArrow=classic;html=1;dashed=1;" parent="1" source="4XVsGeKiMnGcDN7NZz1f-37" target="qiKfdvFr4R7piAgloskP-12" edge="1">
          <mxGeometry width="50" height="50" relative="1" as="geometry">
            <mxPoint x="-620" y="-160" as="sourcePoint" />
            <mxPoint x="-570" y="-210" as="targetPoint" />
          </mxGeometry>
        </mxCell>
        <mxCell id="qiKfdvFr4R7piAgloskP-18" value="" style="endArrow=classic;html=1;entryX=1;entryY=0.5;entryDx=0;entryDy=0;dashed=1;" parent="1" source="4XVsGeKiMnGcDN7NZz1f-37" target="qiKfdvFr4R7piAgloskP-13" edge="1">
          <mxGeometry width="50" height="50" relative="1" as="geometry">
            <mxPoint x="-610" y="-20" as="sourcePoint" />
            <mxPoint x="-560" y="-70" as="targetPoint" />
          </mxGeometry>
        </mxCell>
        <mxCell id="qiKfdvFr4R7piAgloskP-19" value="" style="endArrow=classic;html=1;entryX=1;entryY=0.5;entryDx=0;entryDy=0;dashed=1;" parent="1" source="4XVsGeKiMnGcDN7NZz1f-37" target="qiKfdvFr4R7piAgloskP-14" edge="1">
          <mxGeometry width="50" height="50" relative="1" as="geometry">
            <mxPoint x="-590" y="-30" as="sourcePoint" />
            <mxPoint x="-540" y="-80" as="targetPoint" />
          </mxGeometry>
        </mxCell>
        <mxCell id="qiKfdvFr4R7piAgloskP-20" value="" style="endArrow=classic;html=1;dashed=1;" parent="1" source="4XVsGeKiMnGcDN7NZz1f-37" target="qiKfdvFr4R7piAgloskP-15" edge="1">
          <mxGeometry width="50" height="50" relative="1" as="geometry">
            <mxPoint x="-560" y="-20" as="sourcePoint" />
            <mxPoint x="-510" y="-70" as="targetPoint" />
          </mxGeometry>
        </mxCell>
        <mxCell id="qiKfdvFr4R7piAgloskP-21" value="" style="endArrow=classic;html=1;dashed=1;" parent="1" source="4XVsGeKiMnGcDN7NZz1f-37" target="qiKfdvFr4R7piAgloskP-16" edge="1">
          <mxGeometry width="50" height="50" relative="1" as="geometry">
            <mxPoint x="-490" y="-40" as="sourcePoint" />
            <mxPoint x="-440" y="-90" as="targetPoint" />
          </mxGeometry>
        </mxCell>
        <mxCell id="qiKfdvFr4R7piAgloskP-22" value="Product Backlog" style="ellipse;whiteSpace=wrap;html=1;fillColor=#dae8fc;strokeColor=#6c8ebf;" parent="1" vertex="1">
          <mxGeometry x="-140" y="-270" width="120" height="80" as="geometry" />
        </mxCell>
        <mxCell id="qiKfdvFr4R7piAgloskP-23" value="Sprint Backlog" style="ellipse;whiteSpace=wrap;html=1;fillColor=#dae8fc;strokeColor=#6c8ebf;" parent="1" vertex="1">
          <mxGeometry x="-130" y="-125" width="120" height="80" as="geometry" />
        </mxCell>
        <mxCell id="qiKfdvFr4R7piAgloskP-24" value="Increment" style="ellipse;whiteSpace=wrap;html=1;fillColor=#dae8fc;strokeColor=#6c8ebf;" parent="1" vertex="1">
          <mxGeometry x="-230" width="120" height="80" as="geometry" />
        </mxCell>
        <mxCell id="qiKfdvFr4R7piAgloskP-25" value="" style="endArrow=classic;html=1;dashed=1;" parent="1" source="4XVsGeKiMnGcDN7NZz1f-38" target="qiKfdvFr4R7piAgloskP-22" edge="1">
          <mxGeometry width="50" height="50" relative="1" as="geometry">
            <mxPoint x="30" y="-70" as="sourcePoint" />
            <mxPoint x="80" y="-120" as="targetPoint" />
          </mxGeometry>
        </mxCell>
        <mxCell id="qiKfdvFr4R7piAgloskP-26" value="" style="endArrow=classic;html=1;dashed=1;" parent="1" source="4XVsGeKiMnGcDN7NZz1f-38" target="qiKfdvFr4R7piAgloskP-23" edge="1">
          <mxGeometry width="50" height="50" relative="1" as="geometry">
            <mxPoint x="10" y="-50" as="sourcePoint" />
            <mxPoint x="60" y="-100" as="targetPoint" />
          </mxGeometry>
        </mxCell>
        <mxCell id="qiKfdvFr4R7piAgloskP-27" value="" style="endArrow=classic;html=1;dashed=1;" parent="1" source="4XVsGeKiMnGcDN7NZz1f-38" target="qiKfdvFr4R7piAgloskP-24" edge="1">
          <mxGeometry width="50" height="50" relative="1" as="geometry">
            <mxPoint x="50" y="-110" as="sourcePoint" />
            <mxPoint x="100" y="-160" as="targetPoint" />
          </mxGeometry>
        </mxCell>
        <mxCell id="--FnyJ7yt4JysMKt7wGG-2" value="&lt;span style=&quot;box-sizing: border-box; font-weight: 700; color: rgb(51, 51, 51); font-family: &amp;quot;helvetica neue&amp;quot;, helvetica, arial, sans-serif; font-size: 14px; background-color: rgb(255, 255, 255);&quot;&gt;&lt;em style=&quot;box-sizing: border-box; font-size: 14px;&quot;&gt;Commitment&lt;/em&gt;&lt;/span&gt;" style="text;html=1;align=center;verticalAlign=middle;resizable=0;points=[];autosize=1;strokeColor=none;fillColor=none;fontSize=14;" vertex="1" parent="1">
          <mxGeometry x="-590" y="-220" width="100" height="20" as="geometry" />
        </mxCell>
        <mxCell id="--FnyJ7yt4JysMKt7wGG-3" value="&lt;span style=&quot;box-sizing: border-box ; font-weight: 700 ; color: rgb(51 , 51 , 51) ; font-family: &amp;#34;helvetica neue&amp;#34; , &amp;#34;helvetica&amp;#34; , &amp;#34;arial&amp;#34; , sans-serif ; font-size: 14px ; background-color: rgb(255 , 255 , 255)&quot;&gt;&lt;em style=&quot;box-sizing: border-box&quot;&gt;Focus&lt;/em&gt;&lt;/span&gt;" style="text;html=1;align=center;verticalAlign=middle;resizable=0;points=[];autosize=1;strokeColor=none;fillColor=none;" vertex="1" parent="1">
          <mxGeometry x="-435" y="-95" width="60" height="20" as="geometry" />
        </mxCell>
        <mxCell id="--FnyJ7yt4JysMKt7wGG-4" value="&lt;span style=&quot;box-sizing: border-box ; font-weight: 700 ; color: rgb(51 , 51 , 51) ; font-family: &amp;#34;helvetica neue&amp;#34; , &amp;#34;helvetica&amp;#34; , &amp;#34;arial&amp;#34; , sans-serif ; font-size: 14px ; background-color: rgb(255 , 255 , 255)&quot;&gt;&lt;em style=&quot;box-sizing: border-box&quot;&gt;Openness&lt;/em&gt;&lt;/span&gt;" style="text;html=1;align=center;verticalAlign=middle;resizable=0;points=[];autosize=1;strokeColor=none;fillColor=none;" vertex="1" parent="1">
          <mxGeometry x="-280" y="-220" width="80" height="20" as="geometry" />
        </mxCell>
        <mxCell id="--FnyJ7yt4JysMKt7wGG-5" value="&lt;span style=&quot;box-sizing: border-box ; font-weight: 700 ; color: rgb(51 , 51 , 51) ; font-family: &amp;#34;helvetica neue&amp;#34; , &amp;#34;helvetica&amp;#34; , &amp;#34;arial&amp;#34; , sans-serif ; font-size: 14px ; background-color: rgb(255 , 255 , 255)&quot;&gt;&lt;em style=&quot;box-sizing: border-box&quot;&gt;Respect&lt;/em&gt;&lt;/span&gt;" style="text;html=1;align=center;verticalAlign=middle;resizable=0;points=[];autosize=1;strokeColor=none;fillColor=none;" vertex="1" parent="1">
          <mxGeometry x="-530" y="-290" width="70" height="20" as="geometry" />
        </mxCell>
        <mxCell id="--FnyJ7yt4JysMKt7wGG-6" value="&lt;span style=&quot;box-sizing: border-box ; font-weight: 700 ; color: rgb(51 , 51 , 51) ; font-family: &amp;#34;helvetica neue&amp;#34; , &amp;#34;helvetica&amp;#34; , &amp;#34;arial&amp;#34; , sans-serif ; font-size: 14px ; background-color: rgb(255 , 255 , 255)&quot;&gt;&lt;em style=&quot;box-sizing: border-box&quot;&gt;Courage&lt;/em&gt;&lt;/span&gt;" style="text;html=1;align=center;verticalAlign=middle;resizable=0;points=[];autosize=1;strokeColor=none;fillColor=none;" vertex="1" parent="1">
          <mxGeometry x="-330" y="-290" width="70" height="20" as="geometry" />
        </mxCell>
        <mxCell id="--FnyJ7yt4JysMKt7wGG-9" style="edgeStyle=orthogonalEdgeStyle;rounded=0;orthogonalLoop=1;jettySize=auto;html=1;fontSize=20;strokeWidth=1;" edge="1" parent="1" source="--FnyJ7yt4JysMKt7wGG-7" target="pWea8SycgsO2kqLgSIZi-2">
          <mxGeometry relative="1" as="geometry" />
        </mxCell>
        <mxCell id="--FnyJ7yt4JysMKt7wGG-7" value="Product Owner, Developers,&lt;br&gt;[Scrum Master]" style="ellipse;whiteSpace=wrap;html=1;fillColor=#ffe6cc;strokeColor=#d79b00;" vertex="1" parent="1">
          <mxGeometry x="152.5" y="50" width="105" height="105" as="geometry" />
        </mxCell>
        <mxCell id="--FnyJ7yt4JysMKt7wGG-12" style="edgeStyle=none;rounded=0;orthogonalLoop=1;jettySize=auto;html=1;fontSize=20;strokeWidth=1;" edge="1" parent="1" source="--FnyJ7yt4JysMKt7wGG-10" target="4XVsGeKiMnGcDN7NZz1f-1">
          <mxGeometry relative="1" as="geometry" />
        </mxCell>
        <mxCell id="--FnyJ7yt4JysMKt7wGG-19" style="edgeStyle=none;rounded=0;orthogonalLoop=1;jettySize=auto;html=1;exitX=0.965;exitY=0.734;exitDx=0;exitDy=0;fontSize=20;strokeWidth=1;endSize=5;exitPerimeter=0;" edge="1" parent="1" source="--FnyJ7yt4JysMKt7wGG-10" target="pWea8SycgsO2kqLgSIZi-4">
          <mxGeometry relative="1" as="geometry" />
        </mxCell>
        <mxCell id="--FnyJ7yt4JysMKt7wGG-10" value="Developers,&lt;br&gt;[Scrum Master]" style="ellipse;whiteSpace=wrap;html=1;fillColor=#ffe6cc;strokeColor=#d79b00;" vertex="1" parent="1">
          <mxGeometry x="510" y="420" width="105" height="105" as="geometry" />
        </mxCell>
        <mxCell id="--FnyJ7yt4JysMKt7wGG-17" style="edgeStyle=none;rounded=0;orthogonalLoop=1;jettySize=auto;html=1;exitX=0;exitY=1;exitDx=0;exitDy=0;fontSize=20;strokeWidth=1;" edge="1" parent="1" source="--FnyJ7yt4JysMKt7wGG-15" target="pWea8SycgsO2kqLgSIZi-3">
          <mxGeometry relative="1" as="geometry" />
        </mxCell>
        <mxCell id="--FnyJ7yt4JysMKt7wGG-15" value="Product Owner, Developers,&lt;br&gt;[Scrum Master]" style="ellipse;whiteSpace=wrap;html=1;fillColor=#ffe6cc;strokeColor=#d79b00;" vertex="1" parent="1">
          <mxGeometry x="1080" y="57.5" width="105" height="105" as="geometry" />
        </mxCell>
        <mxCell id="--FnyJ7yt4JysMKt7wGG-21" value="Agile" style="ellipse;whiteSpace=wrap;html=1;aspect=fixed;labelBackgroundColor=none;fontSize=27;strokeWidth=2;fillColor=#e51400;fontStyle=1;strokeColor=#B20000;fontColor=#ffffff;" vertex="1" parent="1">
          <mxGeometry x="-2270" y="275" width="225" height="225" as="geometry" />
        </mxCell>
        <mxCell id="--FnyJ7yt4JysMKt7wGG-52" style="edgeStyle=none;rounded=0;orthogonalLoop=1;jettySize=auto;html=1;exitX=0;exitY=0;exitDx=0;exitDy=0;entryX=1;entryY=0.5;entryDx=0;entryDy=0;fontSize=27;endSize=2;strokeWidth=1;" edge="1" parent="1" source="--FnyJ7yt4JysMKt7wGG-22" target="--FnyJ7yt4JysMKt7wGG-30">
          <mxGeometry relative="1" as="geometry" />
        </mxCell>
        <mxCell id="--FnyJ7yt4JysMKt7wGG-53" style="edgeStyle=none;rounded=0;orthogonalLoop=1;jettySize=auto;html=1;exitX=0;exitY=0;exitDx=0;exitDy=0;entryX=1;entryY=0.75;entryDx=0;entryDy=0;fontSize=27;endSize=2;strokeWidth=1;" edge="1" parent="1" source="--FnyJ7yt4JysMKt7wGG-22" target="--FnyJ7yt4JysMKt7wGG-31">
          <mxGeometry relative="1" as="geometry" />
        </mxCell>
        <mxCell id="--FnyJ7yt4JysMKt7wGG-54" style="edgeStyle=none;rounded=0;orthogonalLoop=1;jettySize=auto;html=1;exitX=0;exitY=0;exitDx=0;exitDy=0;entryX=1;entryY=0.75;entryDx=0;entryDy=0;fontSize=27;endSize=2;strokeWidth=1;" edge="1" parent="1" source="--FnyJ7yt4JysMKt7wGG-22" target="--FnyJ7yt4JysMKt7wGG-34">
          <mxGeometry relative="1" as="geometry" />
        </mxCell>
        <mxCell id="--FnyJ7yt4JysMKt7wGG-55" style="edgeStyle=none;rounded=0;orthogonalLoop=1;jettySize=auto;html=1;exitX=0;exitY=0;exitDx=0;exitDy=0;entryX=0.789;entryY=1.032;entryDx=0;entryDy=0;entryPerimeter=0;fontSize=27;endSize=2;strokeWidth=1;" edge="1" parent="1" source="--FnyJ7yt4JysMKt7wGG-22" target="--FnyJ7yt4JysMKt7wGG-36">
          <mxGeometry relative="1" as="geometry" />
        </mxCell>
        <mxCell id="--FnyJ7yt4JysMKt7wGG-22" value="&lt;span style=&quot;font-family: &amp;#34;times new roman&amp;#34; ; font-size: xx-large&quot;&gt;Individuals and interactions&lt;/span&gt;" style="ellipse;whiteSpace=wrap;html=1;aspect=fixed;labelBackgroundColor=none;fontSize=20;strokeWidth=2;fillColor=#ffe6cc;strokeColor=#d79b00;" vertex="1" parent="1">
          <mxGeometry x="-2410" y="162.5" width="185" height="185" as="geometry" />
        </mxCell>
        <mxCell id="--FnyJ7yt4JysMKt7wGG-50" style="edgeStyle=none;rounded=0;orthogonalLoop=1;jettySize=auto;html=1;exitX=1;exitY=0.5;exitDx=0;exitDy=0;entryX=0;entryY=0.5;entryDx=0;entryDy=0;fontSize=27;endSize=2;strokeWidth=1;" edge="1" parent="1" source="--FnyJ7yt4JysMKt7wGG-23" target="--FnyJ7yt4JysMKt7wGG-28">
          <mxGeometry relative="1" as="geometry" />
        </mxCell>
        <mxCell id="--FnyJ7yt4JysMKt7wGG-51" style="edgeStyle=none;rounded=0;orthogonalLoop=1;jettySize=auto;html=1;exitX=1;exitY=0.5;exitDx=0;exitDy=0;fontSize=27;endSize=2;strokeWidth=1;" edge="1" parent="1" source="--FnyJ7yt4JysMKt7wGG-23" target="--FnyJ7yt4JysMKt7wGG-32">
          <mxGeometry relative="1" as="geometry" />
        </mxCell>
        <mxCell id="--FnyJ7yt4JysMKt7wGG-23" value="&lt;span style=&quot;font-family: &amp;#34;times new roman&amp;#34; ; font-size: xx-large&quot;&gt;Working software&lt;/span&gt;" style="ellipse;whiteSpace=wrap;html=1;aspect=fixed;labelBackgroundColor=none;fontSize=20;strokeWidth=2;fillColor=#dae8fc;strokeColor=#6c8ebf;" vertex="1" parent="1">
          <mxGeometry x="-2090" y="162.5" width="187.5" height="187.5" as="geometry" />
        </mxCell>
        <mxCell id="--FnyJ7yt4JysMKt7wGG-43" style="edgeStyle=none;rounded=0;orthogonalLoop=1;jettySize=auto;html=1;entryX=1;entryY=0.5;entryDx=0;entryDy=0;fontSize=27;endSize=2;strokeWidth=1;exitX=0;exitY=1;exitDx=0;exitDy=0;" edge="1" parent="1" source="--FnyJ7yt4JysMKt7wGG-24" target="--FnyJ7yt4JysMKt7wGG-26">
          <mxGeometry relative="1" as="geometry" />
        </mxCell>
        <mxCell id="--FnyJ7yt4JysMKt7wGG-44" style="edgeStyle=none;rounded=0;orthogonalLoop=1;jettySize=auto;html=1;exitX=0;exitY=1;exitDx=0;exitDy=0;entryX=1;entryY=0.5;entryDx=0;entryDy=0;fontSize=27;endSize=2;strokeWidth=1;" edge="1" parent="1" source="--FnyJ7yt4JysMKt7wGG-24" target="--FnyJ7yt4JysMKt7wGG-29">
          <mxGeometry relative="1" as="geometry" />
        </mxCell>
        <mxCell id="--FnyJ7yt4JysMKt7wGG-46" style="edgeStyle=none;rounded=0;orthogonalLoop=1;jettySize=auto;html=1;exitX=0;exitY=1;exitDx=0;exitDy=0;entryX=1.011;entryY=0.4;entryDx=0;entryDy=0;entryPerimeter=0;fontSize=27;endSize=2;strokeWidth=1;" edge="1" parent="1" source="--FnyJ7yt4JysMKt7wGG-24" target="--FnyJ7yt4JysMKt7wGG-33">
          <mxGeometry relative="1" as="geometry" />
        </mxCell>
        <mxCell id="--FnyJ7yt4JysMKt7wGG-24" value="&lt;span style=&quot;font-family: &amp;#34;times new roman&amp;#34; ; font-size: xx-large&quot;&gt;Customer collaboration&lt;/span&gt;" style="ellipse;whiteSpace=wrap;html=1;aspect=fixed;labelBackgroundColor=none;fontSize=20;strokeWidth=2;fillColor=#ffe6cc;strokeColor=#d79b00;" vertex="1" parent="1">
          <mxGeometry x="-2410" y="425" width="185" height="185" as="geometry" />
        </mxCell>
        <mxCell id="--FnyJ7yt4JysMKt7wGG-47" style="edgeStyle=none;rounded=0;orthogonalLoop=1;jettySize=auto;html=1;exitX=1;exitY=1;exitDx=0;exitDy=0;entryX=0;entryY=0.5;entryDx=0;entryDy=0;fontSize=27;endSize=2;strokeWidth=1;" edge="1" parent="1" source="--FnyJ7yt4JysMKt7wGG-25" target="--FnyJ7yt4JysMKt7wGG-27">
          <mxGeometry relative="1" as="geometry" />
        </mxCell>
        <mxCell id="--FnyJ7yt4JysMKt7wGG-48" style="edgeStyle=none;rounded=0;orthogonalLoop=1;jettySize=auto;html=1;exitX=1;exitY=1;exitDx=0;exitDy=0;entryX=0;entryY=0.5;entryDx=0;entryDy=0;fontSize=27;endSize=2;strokeWidth=1;" edge="1" parent="1" source="--FnyJ7yt4JysMKt7wGG-25" target="--FnyJ7yt4JysMKt7wGG-35">
          <mxGeometry relative="1" as="geometry" />
        </mxCell>
        <mxCell id="--FnyJ7yt4JysMKt7wGG-49" style="edgeStyle=none;rounded=0;orthogonalLoop=1;jettySize=auto;html=1;exitX=1;exitY=1;exitDx=0;exitDy=0;entryX=0;entryY=0.5;entryDx=0;entryDy=0;fontSize=27;endSize=2;strokeWidth=1;" edge="1" parent="1" source="--FnyJ7yt4JysMKt7wGG-25" target="--FnyJ7yt4JysMKt7wGG-37">
          <mxGeometry relative="1" as="geometry" />
        </mxCell>
        <mxCell id="--FnyJ7yt4JysMKt7wGG-25" value="&lt;span style=&quot;font-family: &amp;#34;times new roman&amp;#34; ; font-size: xx-large&quot;&gt;Responding to change&lt;/span&gt;" style="ellipse;whiteSpace=wrap;html=1;aspect=fixed;labelBackgroundColor=none;fontSize=20;strokeWidth=2;fillColor=#e1d5e7;strokeColor=#9673a6;" vertex="1" parent="1">
          <mxGeometry x="-2080" y="410" width="200" height="200" as="geometry" />
        </mxCell>
        <mxCell id="--FnyJ7yt4JysMKt7wGG-26" value="&lt;span style=&quot;font-family: &amp;#34;times new roman&amp;#34; ; font-size: x-large&quot;&gt;1. Our highest priority is to satisfy the customer&lt;/span&gt;&lt;br style=&quot;font-family: &amp;#34;times new roman&amp;#34; ; font-size: x-large&quot;&gt;&lt;span style=&quot;font-family: &amp;#34;times new roman&amp;#34; ; font-size: x-large&quot;&gt;through early and continuous delivery&lt;/span&gt;&lt;br style=&quot;font-family: &amp;#34;times new roman&amp;#34; ; font-size: x-large&quot;&gt;&lt;span style=&quot;font-family: &amp;#34;times new roman&amp;#34; ; font-size: x-large&quot;&gt;of valuable software.&lt;/span&gt;" style="rounded=1;whiteSpace=wrap;html=1;labelBackgroundColor=none;fontSize=20;strokeWidth=2;fillColor=none;" vertex="1" parent="1">
          <mxGeometry x="-3160" y="590" width="560" height="120" as="geometry" />
        </mxCell>
        <mxCell id="--FnyJ7yt4JysMKt7wGG-27" value="&lt;span style=&quot;font-family: &amp;#34;times new roman&amp;#34; ; font-size: x-large&quot;&gt;2. Welcome changing requirements, even late in&lt;/span&gt;&lt;br style=&quot;font-family: &amp;#34;times new roman&amp;#34; ; font-size: x-large&quot;&gt;&lt;span style=&quot;font-family: &amp;#34;times new roman&amp;#34; ; font-size: x-large&quot;&gt;development. Agile processes harness change for&lt;/span&gt;&lt;br style=&quot;font-family: &amp;#34;times new roman&amp;#34; ; font-size: x-large&quot;&gt;&lt;span style=&quot;font-family: &amp;#34;times new roman&amp;#34; ; font-size: x-large&quot;&gt;the customer&#39;s competitive advantage.&lt;/span&gt;" style="rounded=1;whiteSpace=wrap;html=1;labelBackgroundColor=none;fontSize=20;strokeWidth=2;fillColor=none;" vertex="1" parent="1">
          <mxGeometry x="-1690" y="585" width="560" height="140" as="geometry" />
        </mxCell>
        <mxCell id="--FnyJ7yt4JysMKt7wGG-28" value="&lt;span style=&quot;font-family: &amp;#34;times new roman&amp;#34; ; font-size: x-large&quot;&gt;3.Deliver working software frequently, from a&lt;/span&gt;&lt;br style=&quot;font-family: &amp;#34;times new roman&amp;#34; ; font-size: x-large&quot;&gt;&lt;span style=&quot;font-family: &amp;#34;times new roman&amp;#34; ; font-size: x-large&quot;&gt;couple of weeks to a couple of months, with a&lt;/span&gt;&lt;br style=&quot;font-family: &amp;#34;times new roman&amp;#34; ; font-size: x-large&quot;&gt;&lt;span style=&quot;font-family: &amp;#34;times new roman&amp;#34; ; font-size: x-large&quot;&gt;preference to the shorter timescale.&lt;/span&gt;" style="rounded=1;whiteSpace=wrap;html=1;labelBackgroundColor=none;fontSize=20;strokeWidth=2;fillColor=none;" vertex="1" parent="1">
          <mxGeometry x="-1720" y="-5" width="560" height="120" as="geometry" />
        </mxCell>
        <mxCell id="--FnyJ7yt4JysMKt7wGG-29" value="&lt;span style=&quot;font-family: &amp;#34;times new roman&amp;#34; ; font-size: x-large&quot;&gt;4. Business people and developers must work&lt;/span&gt;&lt;br style=&quot;font-family: &amp;#34;times new roman&amp;#34; ; font-size: x-large&quot;&gt;&lt;span style=&quot;font-family: &amp;#34;times new roman&amp;#34; ; font-size: x-large&quot;&gt;together daily throughout the project.&lt;/span&gt;" style="rounded=1;whiteSpace=wrap;html=1;labelBackgroundColor=none;fontSize=20;strokeWidth=2;fillColor=none;" vertex="1" parent="1">
          <mxGeometry x="-3160" y="760" width="560" height="80" as="geometry" />
        </mxCell>
        <mxCell id="--FnyJ7yt4JysMKt7wGG-30" value="&lt;span style=&quot;font-family: &amp;#34;times new roman&amp;#34; ; font-size: x-large&quot;&gt;5. Build projects around motivated individuals.&lt;/span&gt;&lt;br style=&quot;font-family: &amp;#34;times new roman&amp;#34; ; font-size: x-large&quot;&gt;&lt;span style=&quot;font-family: &amp;#34;times new roman&amp;#34; ; font-size: x-large&quot;&gt;Give them the environment and support they need,&lt;/span&gt;&lt;br style=&quot;font-family: &amp;#34;times new roman&amp;#34; ; font-size: x-large&quot;&gt;&lt;span style=&quot;font-family: &amp;#34;times new roman&amp;#34; ; font-size: x-large&quot;&gt;and trust them to get the job done.&lt;/span&gt;" style="rounded=1;whiteSpace=wrap;html=1;labelBackgroundColor=none;fontSize=20;strokeWidth=2;fillColor=none;" vertex="1" parent="1">
          <mxGeometry x="-3160" y="25" width="560" height="125" as="geometry" />
        </mxCell>
        <mxCell id="--FnyJ7yt4JysMKt7wGG-31" value="&lt;span style=&quot;font-family: &amp;#34;times new roman&amp;#34; ; font-size: x-large&quot;&gt;6. The most efficient and effective method of&lt;/span&gt;&lt;br style=&quot;font-family: &amp;#34;times new roman&amp;#34; ; font-size: x-large&quot;&gt;&lt;span style=&quot;font-family: &amp;#34;times new roman&amp;#34; ; font-size: x-large&quot;&gt;conveying information to and within a development&lt;/span&gt;&lt;br style=&quot;font-family: &amp;#34;times new roman&amp;#34; ; font-size: x-large&quot;&gt;&lt;span style=&quot;font-family: &amp;#34;times new roman&amp;#34; ; font-size: x-large&quot;&gt;team is face-to-face conversation.&lt;/span&gt;" style="rounded=1;whiteSpace=wrap;html=1;labelBackgroundColor=none;fontSize=20;strokeWidth=2;fillColor=none;" vertex="1" parent="1">
          <mxGeometry x="-3160" y="-150" width="540" height="130" as="geometry" />
        </mxCell>
        <mxCell id="--FnyJ7yt4JysMKt7wGG-32" value="&lt;span style=&quot;font-family: &amp;#34;times new roman&amp;#34; ; font-size: x-large&quot;&gt;7. Working software is the primary measure of progress.&lt;/span&gt;" style="rounded=1;whiteSpace=wrap;html=1;labelBackgroundColor=none;fontSize=20;strokeWidth=2;fillColor=none;" vertex="1" parent="1">
          <mxGeometry x="-1720" y="202.5" width="570" height="100" as="geometry" />
        </mxCell>
        <mxCell id="--FnyJ7yt4JysMKt7wGG-33" value="&lt;span style=&quot;font-family: &amp;#34;times new roman&amp;#34; ; font-size: x-large&quot;&gt;8. Agile processes promote sustainable development.&lt;/span&gt;&lt;br style=&quot;font-family: &amp;#34;times new roman&amp;#34; ; font-size: x-large&quot;&gt;&lt;span style=&quot;font-family: &amp;#34;times new roman&amp;#34; ; font-size: x-large&quot;&gt;The sponsors, developers, and users should be able&lt;/span&gt;&lt;br style=&quot;font-family: &amp;#34;times new roman&amp;#34; ; font-size: x-large&quot;&gt;&lt;span style=&quot;font-family: &amp;#34;times new roman&amp;#34; ; font-size: x-large&quot;&gt;to maintain a constant pace indefinitely.&lt;/span&gt;" style="rounded=1;whiteSpace=wrap;html=1;labelBackgroundColor=none;fontSize=20;strokeWidth=2;fillColor=none;" vertex="1" parent="1">
          <mxGeometry x="-3160" y="900" width="570" height="140" as="geometry" />
        </mxCell>
        <mxCell id="--FnyJ7yt4JysMKt7wGG-34" value="&lt;span style=&quot;font-family: &amp;#34;times new roman&amp;#34; ; font-size: x-large&quot;&gt;9. Continuous attention to technical excellence&lt;/span&gt;&lt;br style=&quot;font-family: &amp;#34;times new roman&amp;#34; ; font-size: x-large&quot;&gt;&lt;span style=&quot;font-family: &amp;#34;times new roman&amp;#34; ; font-size: x-large&quot;&gt;and good design enhances agility.&lt;/span&gt;" style="rounded=1;whiteSpace=wrap;html=1;labelBackgroundColor=none;fontSize=20;strokeWidth=2;fillColor=none;" vertex="1" parent="1">
          <mxGeometry x="-3160" y="-290" width="550" height="90" as="geometry" />
        </mxCell>
        <mxCell id="--FnyJ7yt4JysMKt7wGG-35" value="&lt;span style=&quot;font-family: &amp;#34;times new roman&amp;#34; ; font-size: x-large&quot;&gt;10. Simplicity--the art of maximizing the amount&lt;/span&gt;&lt;br style=&quot;font-family: &amp;#34;times new roman&amp;#34; ; font-size: x-large&quot;&gt;&lt;span style=&quot;font-family: &amp;#34;times new roman&amp;#34; ; font-size: x-large&quot;&gt;of work not done--is essential.&lt;/span&gt;" style="rounded=1;whiteSpace=wrap;html=1;labelBackgroundColor=none;fontSize=20;strokeWidth=2;fillColor=none;" vertex="1" parent="1">
          <mxGeometry x="-1680" y="780" width="540" height="100" as="geometry" />
        </mxCell>
        <mxCell id="--FnyJ7yt4JysMKt7wGG-36" value="&lt;span style=&quot;font-family: &amp;#34;times new roman&amp;#34; ; font-size: x-large&quot;&gt;11. The best architectures, requirements, and designs&lt;/span&gt;&lt;br style=&quot;font-family: &amp;#34;times new roman&amp;#34; ; font-size: x-large&quot;&gt;&lt;span style=&quot;font-family: &amp;#34;times new roman&amp;#34; ; font-size: x-large&quot;&gt;emerge from self-organizing teams.&lt;/span&gt;" style="rounded=1;whiteSpace=wrap;html=1;labelBackgroundColor=none;fontSize=20;strokeWidth=2;fillColor=none;" vertex="1" parent="1">
          <mxGeometry x="-2890" y="-440" width="550" height="100" as="geometry" />
        </mxCell>
        <mxCell id="--FnyJ7yt4JysMKt7wGG-37" value="&lt;span style=&quot;font-family: &amp;#34;times new roman&amp;#34; ; font-size: x-large&quot;&gt;12. At regular intervals, the team reflects on how&lt;/span&gt;&lt;br style=&quot;font-family: &amp;#34;times new roman&amp;#34; ; font-size: x-large&quot;&gt;&lt;span style=&quot;font-family: &amp;#34;times new roman&amp;#34; ; font-size: x-large&quot;&gt;to become more effective, then tunes and adjusts&lt;/span&gt;&lt;br style=&quot;font-family: &amp;#34;times new roman&amp;#34; ; font-size: x-large&quot;&gt;&lt;span style=&quot;font-family: &amp;#34;times new roman&amp;#34; ; font-size: x-large&quot;&gt;its behavior accordingly.&lt;/span&gt;" style="rounded=1;whiteSpace=wrap;html=1;labelBackgroundColor=none;fontSize=20;strokeWidth=2;fillColor=none;" vertex="1" parent="1">
          <mxGeometry x="-1680" y="920" width="550" height="120" as="geometry" />
        </mxCell>
        <mxCell id="--FnyJ7yt4JysMKt7wGG-56" value="" style="shape=flexArrow;endArrow=classic;html=1;rounded=0;fontSize=27;endSize=2;strokeWidth=1;" edge="1" parent="1">
          <mxGeometry width="50" height="50" relative="1" as="geometry">
            <mxPoint x="-1640" y="-120" as="sourcePoint" />
            <mxPoint x="-1010" y="-202" as="targetPoint" />
          </mxGeometry>
        </mxCell>
        <mxCell id="--FnyJ7yt4JysMKt7wGG-57" value="Mideset" style="edgeLabel;html=1;align=center;verticalAlign=middle;resizable=0;points=[];fontSize=27;" vertex="1" connectable="0" parent="--FnyJ7yt4JysMKt7wGG-56">
          <mxGeometry x="0.089" y="-4" relative="1" as="geometry">
            <mxPoint as="offset" />
          </mxGeometry>
        </mxCell>
        <mxCell id="--FnyJ7yt4JysMKt7wGG-58" value="" style="shape=flexArrow;endArrow=classic;html=1;rounded=0;fontSize=27;endSize=2;strokeWidth=1;" edge="1" parent="1">
          <mxGeometry width="50" height="50" relative="1" as="geometry">
            <mxPoint x="60" y="-190" as="sourcePoint" />
            <mxPoint x="370" y="40" as="targetPoint" />
          </mxGeometry>
        </mxCell>
        <mxCell id="--FnyJ7yt4JysMKt7wGG-59" value="Implement" style="edgeLabel;html=1;align=center;verticalAlign=middle;resizable=0;points=[];fontSize=27;" vertex="1" connectable="0" parent="--FnyJ7yt4JysMKt7wGG-58">
          <mxGeometry x="0.089" y="-4" relative="1" as="geometry">
            <mxPoint as="offset" />
          </mxGeometry>
        </mxCell>
      </root>
    </mxGraphModel>
  </diagram>
</mxfile>
